<?xml version="1.0" standalone="no"?>
<!DOCTYPE svg PUBLIC "-//W3C//DTD SVG 20010904//EN"
 "http://www.w3.org/TR/2001/REC-SVG-20010904/DTD/svg10.dtd">
<svg version="1.0" xmlns="http://www.w3.org/2000/svg"
 width="1080.000000pt" height="1080.000000pt" viewBox="0 0 1080.000000 1080.000000"
 preserveAspectRatio="xMidYMid meet">

<g fill="currentColor"  transform="translate(0.000000,1080.000000) scale(0.100000,-0.100000)"
stroke="none">
<path d="M5145 9544 c-301 -54 -556 -191 -768 -413 -170 -178 -287 -404 -343
-662 -25 -115 -26 -386 -1 -512 84 -422 351 -774 732 -965 196 -98 359 -135
590 -136 238 0 428 44 629 147 395 202 664 581 727 1026 15 104 7 325 -16 439
-50 258 -171 487 -356 677 -216 222 -471 355 -769 400 -118 18 -319 18 -425
-1z"/>
<path d="M2150 8703 c-381 -35 -708 -265 -867 -610 -19 -42 -46 -119 -61 -172
-23 -85 -26 -115 -26 -261 0 -147 3 -176 27 -264 96 -358 366 -636 722 -741
120 -36 334 -45 471 -21 327 57 604 263 751 561 307 617 -49 1347 -727 1490
-73 15 -222 25 -290 18z"/>
<path d="M8490 8704 c-267 -29 -480 -126 -660 -304 -109 -108 -192 -241 -248
-400 -93 -266 -68 -587 64 -829 152 -278 408 -468 716 -532 146 -30 362 -23
493 16 357 106 628 384 726 744 27 97 36 307 20 421 -22 147 -95 328 -179 445
-90 125 -250 264 -377 327 -71 36 -189 77 -265 93 -70 14 -233 25 -290 19z"/>
<path d="M4208 6614 c-63 -19 -123 -87 -137 -155 -8 -35 -11 -756 -11 -2354
l0 -2303 83 -30 c376 -136 747 -208 1198 -233 411 -24 891 31 1297 147 l52 15
0 2363 c0 2622 5 2427 -67 2499 -70 70 -10 67 -1252 66 -941 0 -1123 -3 -1163
-15z"/>
<path d="M1480 6293 c0 -5 -10 -75 -21 -158 -39 -292 -37 -761 7 -1075 82
-600 318 -1220 646 -1701 l59 -87 -49 -133 c-28 -74 -195 -523 -372 -999 -287
-770 -322 -869 -317 -908 6 -51 29 -87 77 -120 51 -34 77 -37 144 -15 50 17
1328 492 1696 630 l105 40 3 2187 c2 2148 2 2187 -17 2225 -26 50 -81 97 -128
110 -44 13 -1833 16 -1833 4z"/>
<path d="M7426 6285 c-49 -17 -93 -59 -117 -110 -18 -39 -19 -117 -19 -2137 0
-1154 4 -2098 8 -2098 19 0 232 116 368 200 665 413 1183 982 1524 1675 100
203 138 292 204 483 106 306 177 646 207 990 22 252 1 801 -37 985 l-6 27
-1046 0 c-863 -1 -1054 -3 -1086 -15z"/>
</g>
</svg>
